<svg width="20" height="20" viewBox="0 0 20 20" fill="none" xmlns="http://www.w3.org/2000/svg">
<g opacity="0.3" clip-path="url(#clip0_169_21)">
<path d="M15.625 7.5H15V5C15 2.2425 12.7575 0 9.99999 0C7.24249 0 4.99999 2.2425 4.99999 5V7.5H4.37499C3.34166 7.5 2.49999 8.34083 2.49999 9.375V18.125C2.49999 19.1592 3.34166 20 4.37499 20H15.625C16.6583 20 17.5 19.1592 17.5 18.125V9.375C17.5 8.34083 16.6583 7.5 15.625 7.5ZM6.66666 5C6.66666 3.16167 8.16166 1.66667 9.99999 1.66667C11.8383 1.66667 13.3333 3.16167 13.3333 5V7.5H6.66666V5ZM10.8333 13.935V15.8333C10.8333 16.2933 10.4608 16.6667 9.99999 16.6667C9.53916 16.6667 9.16666 16.2933 9.16666 15.8333V13.935C8.67083 13.6458 8.33333 13.1142 8.33333 12.5C8.33333 11.5808 9.08083 10.8333 9.99999 10.8333C10.9192 10.8333 11.6667 11.5808 11.6667 12.5C11.6667 13.1142 11.3292 13.6458 10.8333 13.935Z" fill="#686868"/>
</g>
<defs>
<clipPath id="clip0_169_21">
<rect width="20" height="20" fill="white"/>
</clipPath>
</defs>
</svg>
