<svg width="20" height="20" viewBox="0 0 20 20" fill="none" xmlns="http://www.w3.org/2000/svg">
<g clip-path="url(#clip0_2642_881)">
<path d="M10.0014 0C7.14422 0 4.80863 2.33559 4.80863 5.19275C4.80863 8.04991 7.14422 10.3855 10.0014 10.3855C12.8585 10.3855 15.1941 8.04991 15.1941 5.19275C15.1941 2.33559 12.8585 0 10.0014 0Z" fill="#CBCBCB"/>
<path d="M18.9132 14.535C18.7771 14.1949 18.5957 13.8774 18.3917 13.5826C17.3486 12.0407 15.7386 11.0203 13.9246 10.7708C13.6978 10.7482 13.4484 10.7935 13.267 10.9296C12.3146 11.6325 11.1808 11.9953 10.0017 11.9953C8.82248 11.9953 7.68872 11.6325 6.73633 10.9296C6.55491 10.7935 6.30547 10.7255 6.07873 10.7708C4.26467 11.0203 2.63203 12.0407 1.61163 13.5826C1.40755 13.8774 1.22613 14.2176 1.09011 14.535C1.02209 14.6711 1.04475 14.8298 1.11276 14.9659C1.29418 15.2833 1.52092 15.6008 1.725 15.8729C2.04245 16.3038 2.3826 16.6892 2.7681 17.052C3.08555 17.3695 3.44835 17.6643 3.8112 17.9591C5.60256 19.297 7.75677 19.9999 9.97899 19.9999C12.2012 19.9999 14.3554 19.2969 16.1468 17.9591C16.5096 17.687 16.8724 17.3695 17.1899 17.052C17.5527 16.6892 17.9155 16.3037 18.233 15.8729C18.4597 15.5781 18.6638 15.2833 18.8452 14.9659C18.9585 14.8298 18.9812 14.6711 18.9132 14.535Z" fill="#CBCBCB"/>
</g>
<defs>
<clipPath id="clip0_2642_881">
<rect width="20" height="20" fill="white"/>
</clipPath>
</defs>
</svg>
